<svg xmlns="http://www.w3.org/2000/svg" xmlns:xlink="http://www.w3.org/1999/xlink" width="273" zoomAndPan="magnify" viewBox="0 0 204.75 106.499997" height="142" preserveAspectRatio="xMidYMid meet" version="1.2"><defs><clipPath id="37943ee1b1"><path d="M 30 16 L 177 16 L 177 47 L 30 47 Z M 30 16 "/></clipPath><clipPath id="2812340b26"><path d="M 33.226562 0 L 176.113281 19.371094 L 171.136719 56.0625 L 28.253906 36.691406 Z M 33.226562 0 "/></clipPath><clipPath id="dc8fe0a6bb"><path d="M 33.226562 0 L 176.113281 19.371094 L 171.136719 56.0625 L 28.253906 36.691406 Z M 33.226562 0 "/></clipPath><clipPath id="0203342d80"><path d="M 33.226562 0 L 176.113281 19.371094 L 171.136719 56.0625 L 28.253906 36.691406 Z M 33.226562 0 "/></clipPath></defs><g id="cc95e9eb97"><g clip-rule="nonzero" clip-path="url(#37943ee1b1)"><g clip-rule="nonzero" clip-path="url(#2812340b26)"><g clip-rule="nonzero" clip-path="url(#dc8fe0a6bb)"><g clip-rule="nonzero" clip-path="url(#0203342d80)"><path style=" stroke:none;fill-rule:nonzero;fill:#000000;fill-opacity:1;" d="M 106.625 46.871094 C 106.222656 46.816406 105.746094 46.667969 105.152344 46.414062 C 103.964844 45.90625 102.960938 45.039062 102.585938 44.691406 C 102.503906 44.617188 102.46875 44.507812 102.480469 44.40625 C 102.238281 44.636719 101.957031 44.804688 101.632812 44.917969 C 100.984375 45.136719 100.335938 45.066406 99.902344 44.996094 C 99.15625 44.875 98.746094 44.164062 98.617188 43.761719 C 98.542969 43.527344 98.695312 43.0625 98.714844 43.011719 C 98.722656 42.976562 98.753906 42.953125 98.789062 42.945312 C 98.808594 42.945312 98.832031 42.949219 98.847656 42.957031 C 98.808594 42.875 98.792969 42.78125 98.800781 42.691406 C 98.707031 42.863281 98.644531 43.046875 98.621094 43.238281 C 98.582031 43.496094 98.421875 43.714844 98.1875 43.820312 C 97.785156 44 96.964844 44.222656 96.019531 43.695312 C 95.285156 43.289062 95.039062 42.699219 94.964844 42.273438 C 94.878906 41.816406 94.96875 41.457031 94.972656 41.441406 C 94.980469 41.40625 95.007812 41.382812 95.039062 41.375 C 95.0625 41.367188 95.082031 41.371094 95.101562 41.378906 C 95.09375 41.324219 95.117188 41.257812 95.175781 41.179688 C 94.621094 41.59375 94.066406 41.757812 93.679688 41.824219 C 93.1875 41.902344 92.847656 41.84375 92.832031 41.84375 C 92.832031 41.84375 92.828125 41.84375 92.828125 41.84375 C 91.675781 41.566406 91.175781 40.914062 90.960938 40.417969 C 90.726562 39.875 90.765625 39.40625 90.769531 39.386719 C 90.773438 39.339844 90.808594 39.304688 90.855469 39.300781 C 90.875 39.296875 90.898438 39.304688 90.914062 39.316406 C 90.863281 39.082031 90.882812 38.832031 90.976562 38.605469 C 91.34375 37.703125 91.925781 37.441406 92.132812 37.375 C 91.785156 37.472656 91.566406 37.675781 91.265625 37.96875 C 91.085938 38.148438 90.828125 38.257812 90.519531 38.28125 C 90.21875 38.304688 89.890625 38.257812 89.519531 38.132812 C 87.417969 37.4375 87.988281 35.351562 88.125 34.941406 C 88.144531 34.878906 88.191406 34.828125 88.253906 34.804688 C 88.3125 34.78125 88.382812 34.78125 88.441406 34.8125 C 88.449219 34.816406 88.839844 35.015625 89.34375 35.28125 C 88.410156 34.640625 87.121094 33.875 85.402344 33.125 C 82.234375 31.746094 78.761719 30.835938 75.082031 30.425781 C 71.5625 30.035156 67.964844 30.109375 64.390625 30.644531 C 61.5625 31.066406 59.226562 31.921875 56.96875 32.746094 C 53.820312 33.902344 50.84375 34.988281 46.824219 34.863281 C 44.125 34.777344 41.445312 34.246094 39.074219 33.324219 C 37.824219 32.839844 36.671875 32.25 35.652344 31.570312 C 34.574219 30.851562 33.640625 30.03125 32.875 29.132812 C 31.894531 27.980469 31.191406 26.691406 30.777344 25.296875 C 30.332031 23.800781 30.222656 22.167969 30.453125 20.449219 C 30.460938 20.398438 30.507812 20.363281 30.558594 20.367188 C 30.613281 20.375 30.648438 20.421875 30.640625 20.476562 C 30.414062 22.167969 30.519531 23.769531 30.957031 25.242188 C 31.363281 26.609375 32.058594 27.878906 33.019531 29.011719 C 33.773438 29.898438 34.691406 30.703125 35.757812 31.414062 C 36.765625 32.085938 37.90625 32.667969 39.144531 33.152344 C 41.492188 34.0625 44.152344 34.589844 46.828125 34.675781 C 50.8125 34.800781 53.769531 33.71875 56.902344 32.570312 C 59.171875 31.742188 61.515625 30.882812 64.363281 30.457031 C 67.953125 29.917969 71.566406 29.847656 75.101562 30.238281 C 78.804688 30.652344 82.292969 31.566406 85.476562 32.953125 C 88.042969 34.074219 89.660156 35.226562 90.574219 35.957031 C 90.777344 36.074219 90.949219 36.179688 91.089844 36.269531 C 91.539062 36.554688 91.617188 36.660156 91.601562 36.757812 C 91.597656 36.785156 91.578125 36.851562 91.480469 36.867188 C 91.398438 36.882812 91.328125 36.824219 91.003906 36.554688 C 90.863281 36.4375 90.6875 36.285156 90.46875 36.113281 C 90.296875 36.011719 90.089844 35.898438 89.851562 35.765625 C 89.101562 35.355469 88.363281 34.984375 88.355469 34.980469 C 88.34375 34.972656 88.332031 34.976562 88.324219 34.976562 C 88.320312 34.980469 88.308594 34.988281 88.304688 35 C 88.230469 35.226562 88.066406 35.816406 88.175781 36.433594 C 88.300781 37.175781 88.773438 37.6875 89.578125 37.957031 C 89.925781 38.070312 90.230469 38.117188 90.503906 38.09375 C 90.6875 38.078125 90.945312 38.023438 91.132812 37.835938 C 91.523438 37.449219 91.800781 37.210938 92.347656 37.136719 C 92.773438 37.082031 94.632812 36.953125 95.207031 37.207031 C 95.417969 37.296875 95.617188 37.4375 95.796875 37.621094 C 96.253906 37.953125 96.539062 38.476562 96.734375 38.914062 L 96.75 38.941406 C 96.855469 39.171875 96.984375 39.457031 96.855469 39.582031 C 97.550781 39.109375 98.152344 38.839844 98.652344 38.78125 C 99.070312 38.730469 99.402344 38.816406 99.667969 38.972656 C 99.722656 38.980469 99.78125 38.988281 99.835938 39 C 100.578125 39.15625 100.773438 40.378906 100.78125 40.429688 C 100.785156 40.453125 100.777344 40.480469 100.765625 40.5 C 100.722656 40.554688 100.667969 40.558594 100.648438 40.554688 C 100.554688 40.546875 100.511719 40.449219 100.414062 40.242188 C 100.269531 39.921875 100.042969 39.429688 99.605469 39.152344 C 98.625 39.046875 97.386719 39.601562 96.953125 39.960938 C 96.828125 40.066406 96.636719 40.210938 96.433594 40.367188 C 96.175781 40.558594 95.886719 40.777344 95.660156 40.964844 C 95.355469 41.222656 95.300781 41.320312 95.292969 41.347656 C 95.394531 41.496094 96.136719 42.082031 97.113281 42.167969 C 96.835938 42.058594 96.277344 41.746094 96.421875 40.976562 C 96.527344 40.382812 97.007812 40.015625 97.390625 39.816406 C 97.667969 39.667969 98.011719 39.6875 98.28125 39.859375 C 98.898438 40.257812 99.589844 40.839844 99.398438 41.367188 C 99.289062 41.671875 98.96875 41.960938 98.453125 42.230469 C 97.871094 42.53125 97.203125 42.605469 96.578125 42.433594 C 96 42.273438 95.511719 42.015625 95.128906 41.660156 C 95.113281 41.796875 95.105469 42.007812 95.152344 42.246094 C 95.253906 42.804688 95.578125 43.234375 96.109375 43.53125 C 96.984375 44.019531 97.738281 43.8125 98.109375 43.648438 C 98.285156 43.570312 98.40625 43.40625 98.433594 43.210938 C 98.46875 42.9375 98.574219 42.671875 98.730469 42.445312 C 99.109375 41.882812 100.105469 40.578125 101.152344 40.523438 C 101.53125 40.503906 101.839844 40.570312 102.089844 40.683594 C 102.242188 40.710938 102.386719 40.761719 102.523438 40.839844 C 103.171875 41.21875 103.355469 42.039062 103.363281 42.074219 C 103.371094 42.113281 103.355469 42.152344 103.320312 42.171875 C 103.289062 42.195312 103.253906 42.203125 103.214844 42.191406 C 103.128906 42.171875 103.078125 42.074219 102.988281 41.902344 C 102.828125 41.597656 102.570312 41.113281 102.039062 40.863281 C 101.816406 40.828125 101.570312 40.851562 101.300781 40.9375 C 100.347656 41.238281 99.523438 41.832031 99.039062 42.5625 C 98.953125 42.6875 98.972656 42.863281 99.085938 42.972656 L 99.117188 43 C 99.378906 43.261719 99.800781 43.671875 100.292969 43.75 C 100.152344 43.703125 99.992188 43.628906 99.84375 43.527344 C 99.625 43.375 99.511719 43.179688 99.503906 42.949219 C 99.496094 42.75 99.566406 42.523438 99.71875 42.257812 C 99.878906 41.976562 100.09375 41.75 100.320312 41.625 C 100.609375 41.46875 100.917969 41.472656 101.210938 41.632812 C 101.519531 41.800781 101.859375 42.152344 102.050781 42.503906 C 102.246094 42.855469 102.039062 43.3125 101.75 43.601562 C 101.453125 43.90625 100.910156 44.207031 100.277344 44.144531 C 99.894531 44.109375 99.347656 43.921875 98.839844 43.253906 C 98.796875 43.421875 98.769531 43.613281 98.796875 43.707031 C 98.8125 43.746094 99.113281 44.675781 99.933594 44.808594 C 100.34375 44.878906 100.964844 44.945312 101.570312 44.738281 C 102.304688 44.488281 102.820312 43.894531 103.101562 42.976562 C 103.113281 42.929688 103.164062 42.902344 103.210938 42.914062 C 103.261719 42.921875 103.292969 42.96875 103.28125 43.019531 C 103.277344 43.050781 103.148438 43.816406 102.703125 44.355469 C 102.652344 44.414062 102.65625 44.5 102.710938 44.554688 C 103.082031 44.894531 104.0625 45.746094 105.226562 46.242188 C 106.074219 46.601562 106.660156 46.742188 107.128906 46.699219 C 107.671875 46.648438 108.050781 46.34375 108.332031 45.738281 C 108.578125 45.214844 108.457031 44.605469 107.960938 43.886719 C 107.628906 43.625 107.296875 43.351562 106.972656 43.066406 C 106.746094 42.871094 106.515625 42.671875 106.292969 42.476562 C 105.925781 42.160156 105.546875 41.832031 105.179688 41.503906 C 105.136719 41.46875 105.078125 41.417969 105.054688 41.339844 C 105.023438 41.25 105.050781 41.128906 105.152344 41.085938 C 105.246094 41.046875 105.335938 41.097656 105.367188 41.117188 C 105.546875 41.214844 105.691406 41.34375 105.835938 41.472656 C 105.859375 41.492188 105.878906 41.511719 105.902344 41.53125 C 105.957031 41.578125 106.011719 41.625 106.066406 41.675781 C 106.222656 41.8125 106.382812 41.953125 106.542969 42.09375 C 106.929688 42.441406 107.378906 42.859375 107.78125 43.339844 C 107.898438 43.480469 108.007812 43.621094 108.101562 43.753906 C 108.484375 44.054688 108.871094 44.332031 109.257812 44.59375 C 109.816406 44.964844 110.367188 45.308594 110.945312 45.386719 C 110.953125 45.386719 110.964844 45.390625 110.976562 45.390625 C 112.144531 45.53125 113.042969 44.957031 113.269531 43.933594 C 113.363281 43.492188 113.210938 43.011719 112.871094 42.675781 C 112.523438 42.335938 112.109375 41.878906 111.679688 41.390625 C 111.175781 40.96875 110.558594 40.371094 109.957031 39.792969 C 109.484375 39.335938 109.039062 38.90625 108.6875 38.59375 C 108.648438 38.5625 108.566406 38.492188 108.574219 38.386719 C 108.574219 38.324219 108.609375 38.273438 108.664062 38.238281 C 108.757812 38.183594 108.894531 38.207031 108.984375 38.25 C 109.332031 38.425781 109.601562 38.726562 109.84375 38.988281 C 110.15625 39.332031 110.535156 39.773438 110.933594 40.242188 C 111.21875 40.574219 111.519531 40.921875 111.8125 41.257812 C 111.875 41.308594 111.9375 41.359375 112 41.40625 C 112.445312 41.761719 112.925781 42.054688 113.296875 42.273438 C 113.414062 42.339844 113.527344 42.414062 113.640625 42.484375 C 114.082031 42.765625 114.539062 43.054688 115.070312 43.089844 C 115.730469 43.132812 116.328125 42.851562 116.898438 42.230469 C 117.316406 41.773438 117.390625 41.203125 117.125 40.53125 C 116.925781 40.042969 116.554688 39.503906 116.011719 38.933594 C 115.683594 38.589844 115.40625 38.300781 115.160156 38.050781 C 114.890625 37.824219 114.621094 37.59375 114.355469 37.371094 L 114.0625 37.125 C 113.769531 36.878906 113.464844 36.640625 113.167969 36.410156 C 113.070312 36.332031 112.972656 36.257812 112.875 36.179688 C 112.699219 36.042969 112.621094 35.921875 112.640625 35.820312 C 112.652344 35.761719 112.695312 35.714844 112.757812 35.695312 C 112.90625 35.652344 113.136719 35.757812 113.320312 35.945312 C 113.65625 36.296875 113.941406 36.578125 114.269531 36.898438 C 114.5625 37.1875 114.882812 37.5 115.289062 37.914062 C 115.816406 38.359375 116.347656 38.808594 116.867188 39.261719 C 116.957031 39.335938 117.039062 39.414062 117.121094 39.492188 C 117.414062 39.765625 117.691406 40.023438 118.105469 40.121094 C 118.566406 40.226562 119.027344 40.160156 119.4375 39.921875 C 119.832031 39.691406 120.160156 39.3125 120.351562 38.851562 C 120.558594 38.363281 120.484375 37.835938 120.128906 37.242188 C 119.8125 36.71875 119.335938 36.234375 118.953125 35.847656 C 118.902344 35.796875 118.855469 35.75 118.808594 35.703125 C 118.417969 35.304688 117.722656 34.59375 116.835938 33.695312 C 114.066406 30.882812 109.433594 26.175781 108.261719 24.910156 C 107.917969 24.539062 107.453125 24.324219 106.988281 24.320312 L 106.957031 24.320312 C 106.882812 24.320312 106.8125 24.320312 106.746094 24.335938 C 106.71875 24.34375 106.632812 24.363281 106.582031 24.296875 C 106.53125 24.222656 106.578125 24.148438 106.6875 23.980469 C 106.871094 23.695312 107.257812 23.105469 107.363281 22.222656 C 107.363281 22.214844 107.367188 22.207031 107.367188 22.199219 C 107.359375 22.226562 107.351562 22.257812 107.34375 22.285156 C 107.195312 22.800781 106.996094 23.503906 106.667969 23.886719 C 106.507812 24.074219 106.292969 24.265625 106.074219 24.40625 C 105.722656 24.640625 105.636719 24.585938 105.601562 24.566406 C 105.597656 24.5625 105.578125 24.550781 105.566406 24.527344 C 105.554688 24.558594 105.539062 24.585938 105.527344 24.605469 C 105.324219 24.960938 105.097656 24.921875 105.070312 24.914062 C 105.042969 24.90625 105.019531 24.886719 105.007812 24.863281 C 105.003906 24.859375 105.003906 24.859375 105.003906 24.855469 C 104.890625 25.445312 104.652344 25.941406 104.289062 26.335938 C 104.175781 26.460938 104.070312 26.578125 103.964844 26.691406 C 102.988281 27.769531 102.542969 28.261719 101.039062 28.515625 C 99.878906 28.707031 99.003906 28.574219 98.632812 28.140625 C 98.433594 27.90625 98.390625 27.589844 98.511719 27.226562 C 98.601562 26.964844 98.710938 26.796875 98.84375 26.65625 C 98.992188 26.402344 99.234375 26.085938 99.542969 25.6875 L 99.636719 25.570312 C 99.933594 25.183594 100.027344 24.480469 100.105469 23.917969 C 100.144531 23.644531 100.175781 23.40625 100.226562 23.238281 C 100.292969 23.011719 100.347656 22.820312 100.394531 22.652344 C 100.714844 21.515625 100.726562 21.5 101.863281 20.832031 C 102.46875 20.476562 103.113281 20.152344 103.738281 19.839844 C 104.238281 19.585938 104.757812 19.324219 105.253906 19.050781 C 106.894531 18.136719 108.210938 18.476562 109.730469 18.871094 C 109.925781 18.921875 110.121094 18.972656 110.324219 19.019531 C 111.007812 19.1875 111.191406 19.148438 111.234375 19.132812 C 111.210938 19.078125 111.054688 18.855469 110.050781 18.351562 C 109.953125 18.300781 109.839844 18.246094 109.710938 18.183594 C 107.777344 17.597656 106.214844 17.046875 105.21875 16.644531 C 105.136719 16.636719 105.046875 16.628906 104.957031 16.625 C 104.066406 16.5625 102.675781 16.632812 101.121094 17.3125 C 99.492188 18.027344 98.011719 18.347656 97.273438 18.472656 C 96.773438 18.558594 96.320312 18.609375 95.96875 18.617188 C 95.414062 18.632812 95.355469 18.535156 95.328125 18.496094 C 95.296875 18.445312 95.292969 18.367188 95.375 18.296875 C 95.800781 17.921875 96.5625 17.808594 97.679688 17.679688 C 98.839844 17.546875 101.75 16.558594 102.054688 16.414062 C 102.214844 16.339844 102.644531 16.199219 103.222656 16.15625 C 103.929688 16.101562 104.617188 16.203125 105.265625 16.460938 C 106.074219 16.546875 106.570312 16.730469 106.609375 16.746094 C 108.085938 17.257812 109.109375 17.691406 109.78125 18.007812 C 110.855469 18.335938 112.046875 18.671875 113.320312 18.996094 C 113.628906 19.078125 113.941406 19.167969 114.257812 19.269531 C 116.535156 19.996094 118.941406 21.019531 121.617188 22.398438 C 124 23.625 126.363281 25.011719 128.652344 26.351562 C 131.921875 28.265625 135.300781 30.246094 138.761719 31.78125 C 140.625 32.609375 142.367188 33.246094 144.082031 33.730469 C 146.003906 34.273438 147.847656 34.609375 149.71875 34.761719 C 152.566406 34.992188 155.078125 35.007812 157.398438 34.808594 C 160.292969 34.5625 162.894531 33.96875 165.128906 33.046875 C 166.394531 32.523438 167.574219 31.882812 168.632812 31.140625 C 169.765625 30.347656 170.796875 29.414062 171.691406 28.371094 C 172.644531 27.257812 173.476562 25.988281 174.160156 24.59375 C 174.882812 23.117188 175.460938 21.457031 175.882812 19.664062 C 175.894531 19.613281 175.945312 19.582031 175.996094 19.59375 C 176.046875 19.605469 176.078125 19.65625 176.066406 19.707031 C 175.640625 21.515625 175.058594 23.1875 174.328125 24.675781 C 173.636719 26.082031 172.796875 27.367188 171.835938 28.492188 C 170.929688 29.546875 169.886719 30.492188 168.742188 31.292969 C 167.671875 32.042969 166.480469 32.691406 165.203125 33.21875 C 162.949219 34.152344 160.328125 34.75 157.414062 34.996094 C 155.082031 35.195312 152.5625 35.179688 149.707031 34.949219 C 147.820312 34.796875 145.964844 34.457031 144.027344 33.910156 C 142.304688 33.425781 140.558594 32.785156 138.6875 31.953125 C 135.214844 30.414062 131.832031 28.429688 128.558594 26.515625 C 126.273438 25.175781 123.90625 23.789062 121.53125 22.5625 C 118.867188 21.191406 116.46875 20.171875 114.199219 19.445312 C 113.890625 19.347656 113.578125 19.257812 113.273438 19.179688 C 112.359375 18.945312 111.488281 18.707031 110.671875 18.46875 C 110.855469 18.574219 111.007812 18.671875 111.125 18.761719 C 111.363281 18.941406 111.453125 19.074219 111.421875 19.1875 C 111.382812 19.316406 111.21875 19.433594 110.28125 19.203125 C 110.078125 19.152344 109.878906 19.101562 109.683594 19.050781 C 108.203125 18.667969 106.921875 18.335938 105.34375 19.214844 C 104.847656 19.492188 104.324219 19.753906 103.820312 20.007812 C 103.199219 20.320312 102.558594 20.640625 101.957031 20.992188 C 101.414062 21.316406 101.136719 21.476562 100.972656 21.683594 C 100.804688 21.890625 100.730469 22.160156 100.578125 22.703125 C 100.527344 22.871094 100.476562 23.066406 100.410156 23.289062 C 100.363281 23.445312 100.332031 23.675781 100.292969 23.945312 C 100.210938 24.527344 100.113281 25.257812 99.785156 25.683594 L 99.691406 25.804688 C 99.601562 25.921875 99.511719 26.035156 99.433594 26.144531 C 99.597656 25.992188 99.789062 25.800781 100.007812 25.523438 C 100.050781 25.472656 100.089844 25.410156 100.121094 25.355469 C 100.21875 25.183594 100.535156 24.8125 101.289062 25.046875 C 101.847656 25.21875 102.050781 25.320312 102.121094 25.464844 C 102.179688 25.582031 102.136719 25.699219 102.085938 25.832031 C 102.058594 25.902344 102.011719 25.933594 101.976562 25.945312 C 101.90625 25.972656 101.832031 25.953125 101.734375 25.90625 C 101.777344 25.941406 101.808594 25.976562 101.832031 26.011719 C 101.890625 26.101562 101.886719 26.175781 101.875 26.222656 C 101.804688 26.5 101.179688 27.25 100.976562 27.402344 C 100.425781 27.816406 99.476562 27.84375 98.859375 27.460938 C 98.78125 27.414062 98.726562 27.351562 98.695312 27.277344 C 98.695312 27.28125 98.691406 27.285156 98.691406 27.289062 C 98.589844 27.589844 98.617188 27.835938 98.777344 28.019531 C 99.097656 28.394531 99.929688 28.507812 101.007812 28.328125 C 102.445312 28.085938 102.878906 27.609375 103.828125 26.5625 C 103.929688 26.449219 104.035156 26.335938 104.148438 26.207031 C 104.644531 25.667969 104.894531 24.921875 104.890625 23.988281 C 104.890625 23.125 104.667969 22.441406 104.644531 22.367188 C 104.59375 22.210938 104.589844 22.125 104.644531 22.074219 C 104.675781 22.042969 104.722656 22.03125 104.765625 22.042969 C 104.90625 22.085938 105.121094 22.433594 105.191406 22.816406 C 105.375 23.828125 105.308594 24.398438 105.242188 24.667969 C 105.277344 24.636719 105.320312 24.589844 105.363281 24.515625 C 105.445312 24.375 105.554688 23.96875 105.613281 22.851562 C 105.648438 22.257812 105.460938 21.925781 105.371094 21.769531 C 105.328125 21.6875 105.292969 21.625 105.339844 21.5625 C 105.386719 21.503906 105.460938 21.523438 105.492188 21.53125 C 105.644531 21.566406 105.769531 21.679688 105.859375 21.867188 C 106.140625 22.445312 106.050781 23.667969 105.785156 24.359375 C 105.957031 24.277344 106.273438 24.058594 106.523438 23.765625 C 106.824219 23.414062 107.019531 22.730469 107.160156 22.234375 C 107.207031 22.078125 107.242188 21.945312 107.277344 21.84375 C 107.320312 21.726562 107.34375 21.65625 107.367188 21.605469 C 107.390625 21.546875 107.429688 21.449219 107.523438 21.46875 C 107.621094 21.492188 107.613281 21.605469 107.605469 21.726562 C 107.597656 21.835938 107.582031 22.003906 107.550781 22.246094 C 107.4375 23.171875 107.039062 23.785156 106.847656 24.082031 C 106.835938 24.101562 106.824219 24.117188 106.8125 24.136719 C 106.863281 24.132812 106.914062 24.132812 106.957031 24.132812 L 106.988281 24.132812 C 107.507812 24.136719 108.019531 24.371094 108.402344 24.785156 C 109.570312 26.046875 114.203125 30.753906 116.972656 33.566406 C 117.855469 34.460938 118.554688 35.171875 118.945312 35.570312 C 118.988281 35.617188 119.035156 35.664062 119.085938 35.714844 C 119.476562 36.109375 119.964844 36.605469 120.289062 37.144531 C 120.679688 37.796875 120.757812 38.378906 120.527344 38.925781 C 120.316406 39.421875 119.964844 39.832031 119.53125 40.082031 C 119.136719 40.3125 118.699219 40.398438 118.257812 40.339844 C 118.191406 40.332031 118.128906 40.316406 118.0625 40.304688 C 117.601562 40.195312 117.304688 39.921875 116.992188 39.628906 C 116.914062 39.554688 116.832031 39.476562 116.746094 39.402344 C 116.660156 39.328125 116.570312 39.253906 116.484375 39.179688 C 117.570312 40.46875 117.765625 41.5625 117.039062 42.359375 C 116.429688 43.023438 115.78125 43.324219 115.058594 43.277344 C 114.480469 43.238281 114.003906 42.9375 113.539062 42.644531 C 113.429688 42.574219 113.3125 42.5 113.199219 42.433594 C 112.980469 42.304688 112.71875 42.144531 112.449219 41.964844 C 112.644531 42.179688 112.832031 42.375 113.003906 42.539062 C 113.390625 42.921875 113.5625 43.46875 113.453125 43.972656 C 113.332031 44.519531 113.035156 44.957031 112.59375 45.246094 C 112.144531 45.539062 111.578125 45.652344 110.953125 45.578125 C 110.941406 45.578125 110.929688 45.574219 110.917969 45.574219 C 110.300781 45.488281 109.730469 45.136719 109.152344 44.75 C 108.890625 44.574219 108.628906 44.390625 108.371094 44.195312 C 108.683594 44.800781 108.726562 45.335938 108.503906 45.820312 C 108.195312 46.480469 107.753906 46.828125 107.148438 46.886719 C 106.984375 46.902344 106.8125 46.898438 106.625 46.871094 Z M 98.992188 43.140625 C 99.363281 43.632812 99.8125 43.914062 100.296875 43.960938 C 100.863281 44.011719 101.347656 43.742188 101.617188 43.472656 C 101.847656 43.234375 102.03125 42.863281 101.886719 42.59375 C 101.710938 42.273438 101.394531 41.945312 101.121094 41.796875 C 100.882812 41.667969 100.644531 41.664062 100.410156 41.792969 C 100.214844 41.898438 100.027344 42.097656 99.882812 42.351562 C 99.8125 42.476562 99.757812 42.589844 99.726562 42.695312 C 99.746094 42.671875 99.769531 42.660156 99.785156 42.652344 C 99.804688 42.648438 99.871094 42.632812 99.925781 42.703125 C 100.210938 43.078125 101.089844 43.597656 101.097656 43.601562 C 101.128906 43.621094 101.144531 43.648438 101.144531 43.683594 C 101.144531 43.714844 101.128906 43.746094 101.101562 43.765625 C 100.820312 43.933594 100.550781 43.976562 100.296875 43.941406 C 99.734375 43.867188 99.261719 43.410156 98.992188 43.140625 Z M 99.910156 42.96875 C 99.917969 42.988281 99.925781 43.007812 99.9375 43.03125 C 100.015625 43.1875 100.230469 43.480469 100.800781 43.675781 C 100.8125 43.679688 100.820312 43.683594 100.828125 43.691406 C 100.839844 43.6875 100.851562 43.683594 100.859375 43.675781 C 100.632812 43.535156 100.1875 43.242188 99.910156 42.96875 Z M 99.695312 42.863281 C 99.675781 43.074219 99.757812 43.234375 99.945312 43.367188 C 99.773438 43.179688 99.703125 42.992188 99.695312 42.863281 Z M 92.867188 41.660156 C 92.898438 41.664062 93.214844 41.710938 93.65625 41.636719 C 94.082031 41.566406 94.71875 41.363281 95.324219 40.8125 C 95.859375 40.324219 96.359375 39.921875 96.816406 39.609375 C 96.8125 39.609375 96.808594 39.609375 96.804688 39.613281 C 96.636719 39.65625 96.5625 39.441406 96.511719 39.300781 C 96.503906 39.277344 96.496094 39.253906 96.488281 39.238281 C 96.335938 38.835938 96.191406 38.476562 95.980469 38.152344 C 95.886719 38.007812 95.785156 37.878906 95.675781 37.765625 C 95.636719 37.738281 95.59375 37.710938 95.550781 37.6875 C 95.226562 37.5 94.808594 37.421875 94.265625 37.4375 C 94.058594 37.445312 93.851562 37.445312 93.65625 37.441406 C 93.183594 37.4375 92.738281 37.433594 92.242188 37.539062 C 92.214844 37.542969 91.554688 37.6875 91.152344 38.675781 C 91.027344 38.972656 91.054688 39.3125 91.21875 39.582031 C 91.527344 40.082031 92.085938 40.640625 93.070312 40.726562 C 92.878906 40.640625 92.410156 40.382812 92.304688 39.921875 C 92.21875 39.558594 92.382812 39.160156 92.792969 38.742188 C 93.066406 38.460938 93.375 38.285156 93.6875 38.238281 C 93.976562 38.191406 94.300781 38.285156 94.597656 38.492188 C 94.871094 38.6875 95.101562 38.96875 95.226562 39.269531 C 95.457031 39.808594 95.332031 40.324219 94.902344 40.648438 C 94.496094 40.953125 93.648438 41.128906 92.820312 41.019531 C 92.609375 40.988281 92.402344 40.941406 92.199219 40.875 C 91.671875 40.691406 91.269531 40.386719 91.011719 39.976562 C 91.039062 40.09375 91.078125 40.21875 91.136719 40.351562 C 91.425781 41.011719 92.007812 41.453125 92.867188 41.660156 Z M 96.761719 40.726562 C 96.765625 40.726562 96.773438 40.726562 96.777344 40.730469 C 96.824219 40.742188 96.847656 40.789062 96.839844 40.835938 C 96.757812 41.289062 97.542969 41.941406 97.851562 42.15625 C 97.882812 42.175781 97.898438 42.214844 97.890625 42.25 C 98.054688 42.207031 98.214844 42.144531 98.367188 42.0625 C 98.832031 41.820312 99.128906 41.558594 99.222656 41.300781 C 99.382812 40.851562 98.546875 40.253906 98.179688 40.019531 C 97.964844 39.878906 97.695312 39.867188 97.480469 39.980469 C 97.195312 40.128906 96.855469 40.375 96.6875 40.746094 C 96.707031 40.730469 96.734375 40.722656 96.761719 40.722656 Z M 96.753906 41.289062 C 96.769531 41.527344 96.894531 41.816406 97.324219 42.039062 C 97.367188 42.058594 97.386719 42.109375 97.371094 42.152344 C 97.367188 42.160156 97.363281 42.167969 97.359375 42.175781 C 97.425781 42.175781 97.488281 42.175781 97.554688 42.167969 C 97.324219 41.984375 96.941406 41.648438 96.753906 41.289062 Z M 105.230469 41.257812 C 105.230469 41.265625 105.230469 41.273438 105.230469 41.277344 C 105.242188 41.308594 105.273438 41.339844 105.304688 41.363281 C 105.671875 41.691406 106.050781 42.019531 106.417969 42.335938 C 106.640625 42.527344 106.871094 42.726562 107.09375 42.925781 C 107.191406 43.011719 107.289062 43.09375 107.390625 43.179688 C 107.0625 42.824219 106.71875 42.507812 106.417969 42.234375 C 106.257812 42.09375 106.097656 41.953125 105.941406 41.816406 C 105.886719 41.769531 105.832031 41.71875 105.777344 41.671875 C 105.757812 41.652344 105.734375 41.632812 105.710938 41.613281 C 105.570312 41.488281 105.4375 41.371094 105.277344 41.28125 C 105.25 41.265625 105.238281 41.261719 105.230469 41.257812 Z M 101.410156 40.710938 C 101.332031 40.707031 101.25 40.707031 101.164062 40.710938 C 100.582031 40.742188 100.007812 41.207031 99.5625 41.691406 C 100.03125 41.28125 100.609375 40.957031 101.246094 40.757812 C 101.300781 40.738281 101.355469 40.722656 101.410156 40.710938 Z M 92.988281 38.871094 C 93.003906 38.871094 93.019531 38.875 93.03125 38.882812 C 93.0625 38.90625 93.078125 38.941406 93.070312 38.976562 C 92.917969 39.882812 93.730469 40.742188 93.738281 40.75 C 93.757812 40.773438 93.769531 40.808594 93.761719 40.839844 C 94.191406 40.789062 94.570312 40.664062 94.789062 40.5 C 95.152344 40.226562 95.25 39.804688 95.054688 39.34375 C 94.941406 39.074219 94.734375 38.820312 94.488281 38.644531 C 94.230469 38.464844 93.957031 38.386719 93.714844 38.421875 C 93.375 38.476562 93.097656 38.695312 92.929688 38.871094 C 92.917969 38.882812 92.910156 38.890625 92.898438 38.902344 C 92.914062 38.890625 92.925781 38.882812 92.925781 38.882812 C 92.945312 38.871094 92.96875 38.867188 92.988281 38.871094 Z M 92.863281 39.183594 C 92.761719 39.289062 92.652344 39.449219 92.640625 39.652344 C 92.625 39.953125 92.828125 40.269531 93.246094 40.601562 C 93.28125 40.628906 93.292969 40.679688 93.269531 40.71875 C 93.265625 40.726562 93.261719 40.730469 93.257812 40.738281 C 93.328125 40.738281 93.398438 40.738281 93.476562 40.734375 C 93.261719 40.46875 92.851562 39.863281 92.863281 39.183594 Z M 91.089844 39.726562 C 91.273438 40.097656 91.558594 40.347656 91.847656 40.511719 C 91.507812 40.285156 91.261719 40 91.089844 39.726562 Z M 96.785156 39.859375 C 96.601562 39.992188 96.410156 40.136719 96.214844 40.292969 C 96.25 40.269531 96.285156 40.242188 96.320312 40.214844 C 96.496094 40.082031 96.664062 39.957031 96.785156 39.859375 Z M 99.070312 38.964844 C 98.949219 38.949219 98.816406 38.949219 98.675781 38.96875 C 98.285156 39.015625 97.824219 39.199219 97.300781 39.515625 C 97.539062 39.390625 97.820312 39.269531 98.105469 39.175781 C 98.371094 39.085938 98.710938 39 99.070312 38.964844 Z M 100.136719 39.386719 C 100.214844 39.480469 100.28125 39.578125 100.339844 39.675781 C 100.28125 39.570312 100.214844 39.46875 100.136719 39.386719 Z M 108.761719 38.398438 C 108.765625 38.40625 108.773438 38.421875 108.808594 38.453125 C 109.167969 38.765625 109.617188 39.199219 110.089844 39.65625 C 110.273438 39.835938 110.457031 40.015625 110.640625 40.1875 C 110.296875 39.789062 109.972656 39.414062 109.703125 39.117188 C 109.464844 38.851562 109.214844 38.578125 108.898438 38.417969 C 108.847656 38.390625 108.785156 38.390625 108.761719 38.398438 Z M 94.296875 37.25 C 93.992188 37.238281 93.65625 37.242188 93.34375 37.253906 C 93.449219 37.253906 93.550781 37.253906 93.65625 37.253906 C 93.851562 37.257812 94.054688 37.257812 94.257812 37.25 C 94.273438 37.25 94.285156 37.25 94.296875 37.25 Z M 112.835938 35.875 C 112.851562 35.902344 112.890625 35.953125 112.992188 36.03125 C 113.089844 36.109375 113.1875 36.183594 113.285156 36.261719 C 113.398438 36.351562 113.511719 36.4375 113.628906 36.53125 C 113.484375 36.386719 113.339844 36.238281 113.183594 36.078125 C 113.042969 35.929688 112.898438 35.878906 112.835938 35.875 Z M 98.996094 26.769531 C 98.894531 26.941406 98.84375 27.078125 98.859375 27.175781 C 98.867188 27.207031 98.882812 27.257812 98.960938 27.304688 C 99.214844 27.460938 99.566406 27.550781 99.917969 27.542969 C 100.285156 27.539062 100.621094 27.433594 100.863281 27.25 C 101.058594 27.105469 101.636719 26.394531 101.691406 26.175781 C 101.695312 26.171875 101.699219 26.152344 101.675781 26.117188 C 101.558594 25.941406 101.042969 25.746094 100.476562 25.660156 C 100.363281 25.644531 100.253906 25.621094 100.226562 25.542969 C 100.207031 25.574219 100.183594 25.609375 100.15625 25.640625 C 99.78125 26.109375 99.496094 26.339844 99.269531 26.53125 C 99.164062 26.617188 99.074219 26.691406 98.996094 26.769531 Z M 100.863281 25.363281 C 101.199219 25.410156 101.46875 25.554688 101.667969 25.660156 C 101.75 25.707031 101.867188 25.769531 101.90625 25.769531 C 101.90625 25.769531 101.90625 25.765625 101.910156 25.765625 C 101.949219 25.65625 101.972656 25.589844 101.953125 25.550781 C 101.898438 25.441406 101.558594 25.324219 101.230469 25.226562 C 100.707031 25.0625 100.449219 25.230469 100.328125 25.386719 C 100.328125 25.382812 100.332031 25.382812 100.332031 25.382812 C 100.335938 25.382812 100.339844 25.382812 100.34375 25.378906 C 100.53125 25.34375 100.707031 25.34375 100.863281 25.363281 Z M 104.859375 22.425781 C 104.929688 22.675781 105.078125 23.273438 105.082031 23.988281 C 105.082031 24.253906 105.0625 24.503906 105.023438 24.742188 C 105.074219 24.605469 105.226562 24.058594 105.007812 22.851562 C 104.976562 22.679688 104.917969 22.535156 104.859375 22.425781 Z M 105.621094 21.832031 C 105.714844 22.039062 105.828125 22.371094 105.804688 22.863281 C 105.777344 23.363281 105.738281 23.757812 105.6875 24.054688 C 105.875 23.390625 105.917969 22.417969 105.691406 21.949219 C 105.667969 21.90625 105.644531 21.867188 105.621094 21.832031 Z M 95.535156 18.40625 C 95.722656 18.449219 96.324219 18.449219 97.320312 18.273438 C 98.035156 18.148438 99.472656 17.832031 101.046875 17.140625 C 102.363281 16.5625 103.570312 16.417969 104.464844 16.417969 C 103.363281 16.195312 102.421875 16.449219 102.132812 16.585938 C 101.824219 16.730469 98.878906 17.730469 97.703125 17.867188 C 96.6875 17.984375 95.929688 18.09375 95.535156 18.40625 Z M 106.179688 16.8125 C 106.660156 16.992188 107.214844 17.1875 107.832031 17.390625 C 107.449219 17.246094 107.023438 17.085938 106.546875 16.921875 C 106.546875 16.921875 106.542969 16.921875 106.542969 16.921875 C 106.539062 16.921875 106.410156 16.871094 106.179688 16.8125 Z M 106.179688 16.8125 "/></g></g></g></g><g style="fill:#000000;fill-opacity:1;"><g transform="translate(32.715587, 83.915832)"><path style="stroke:none" d="M 16.75 -24.796875 C 17.007812 -24.773438 17.207031 -24.664062 17.34375 -24.46875 C 17.488281 -24.269531 17.539062 -24.039062 17.5 -23.78125 L 13.84375 -0.8125 C 13.769531 -0.320312 13.472656 -0.078125 12.953125 -0.078125 C 12.898438 -0.078125 12.851562 -0.078125 12.8125 -0.078125 C 12.570312 -0.117188 12.375 -0.234375 12.21875 -0.421875 C 12.070312 -0.609375 12.019531 -0.832031 12.0625 -1.09375 L 13.625 -10.890625 L 3.71875 -10.890625 L 2.125 -0.8125 C 2.050781 -0.320312 1.753906 -0.078125 1.234375 -0.078125 C 1.191406 -0.078125 1.144531 -0.078125 1.09375 -0.078125 C 0.863281 -0.117188 0.671875 -0.234375 0.515625 -0.421875 C 0.359375 -0.609375 0.304688 -0.832031 0.359375 -1.09375 L 4.015625 -24.0625 C 4.054688 -24.320312 4.175781 -24.519531 4.375 -24.65625 C 4.582031 -24.800781 4.800781 -24.847656 5.03125 -24.796875 C 5.269531 -24.773438 5.457031 -24.664062 5.59375 -24.46875 C 5.738281 -24.269531 5.800781 -24.039062 5.78125 -23.78125 L 4.015625 -12.703125 L 13.90625 -12.703125 L 15.71875 -24.0625 C 15.769531 -24.320312 15.894531 -24.519531 16.09375 -24.65625 C 16.289062 -24.800781 16.507812 -24.847656 16.75 -24.796875 Z M 16.75 -24.796875 "/></g></g><g style="fill:#000000;fill-opacity:1;"><g transform="translate(49.670086, 83.915832)"><path style="stroke:none" d="M 9.125 -3.40625 C 9.3125 -3.550781 9.519531 -3.613281 9.75 -3.59375 C 9.988281 -3.582031 10.191406 -3.484375 10.359375 -3.296875 C 10.523438 -3.109375 10.59375 -2.894531 10.5625 -2.65625 C 10.539062 -2.425781 10.4375 -2.226562 10.25 -2.0625 C 9.726562 -1.613281 9.070312 -1.1875 8.28125 -0.78125 C 7.488281 -0.375 6.609375 -0.171875 5.640625 -0.171875 C 5.359375 -0.171875 5.078125 -0.195312 4.796875 -0.25 C 3.460938 -0.4375 2.457031 -1.097656 1.78125 -2.234375 C 1.375 -2.921875 1.144531 -3.703125 1.09375 -4.578125 C 1.070312 -4.648438 1.0625 -4.722656 1.0625 -4.796875 C 1.0625 -4.796875 1.070312 -4.804688 1.09375 -4.828125 C 1.070312 -5.679688 1.226562 -6.566406 1.5625 -7.484375 C 1.914062 -8.410156 2.46875 -9.25 3.21875 -10 C 3.976562 -10.757812 4.867188 -11.34375 5.890625 -11.75 C 6.597656 -12.03125 7.273438 -12.1875 7.921875 -12.21875 C 8.578125 -12.257812 9.128906 -12.160156 9.578125 -11.921875 C 10.410156 -11.515625 10.859375 -10.890625 10.921875 -10.046875 C 10.972656 -9.429688 10.800781 -8.789062 10.40625 -8.125 C 10.019531 -7.457031 9.445312 -6.832031 8.6875 -6.25 C 7.53125 -5.394531 6.441406 -4.800781 5.421875 -4.46875 C 4.410156 -4.132812 3.582031 -3.945312 2.9375 -3.90625 C 3.039062 -3.625 3.148438 -3.363281 3.265625 -3.125 C 3.671875 -2.457031 4.257812 -2.078125 5.03125 -1.984375 C 5.882812 -1.847656 6.664062 -1.945312 7.375 -2.28125 C 8.082031 -2.625 8.664062 -3 9.125 -3.40625 Z M 3.234375 -6.890625 C 3.066406 -6.484375 2.957031 -6.066406 2.90625 -5.640625 C 3.425781 -5.710938 4.101562 -5.882812 4.9375 -6.15625 C 5.78125 -6.425781 6.675781 -6.929688 7.625 -7.671875 C 8.195312 -8.085938 8.597656 -8.5 8.828125 -8.90625 C 9.066406 -9.3125 9.1875 -9.644531 9.1875 -9.90625 C 9.164062 -9.945312 9.128906 -10.015625 9.078125 -10.109375 C 9.035156 -10.203125 8.929688 -10.285156 8.765625 -10.359375 C 8.648438 -10.429688 8.460938 -10.46875 8.203125 -10.46875 C 7.984375 -10.46875 7.734375 -10.4375 7.453125 -10.375 C 7.171875 -10.320312 6.863281 -10.234375 6.53125 -10.109375 C 5.75 -9.804688 5.066406 -9.367188 4.484375 -8.796875 C 3.910156 -8.234375 3.492188 -7.597656 3.234375 -6.890625 Z M 3.234375 -6.890625 "/></g></g><g style="fill:#000000;fill-opacity:1;"><g transform="translate(61.659016, 83.915832)"><path style="stroke:none" d="M 5.53125 -24.34375 C 5.769531 -24.289062 5.957031 -24.171875 6.09375 -23.984375 C 6.238281 -23.796875 6.289062 -23.582031 6.25 -23.34375 L 2.65625 -0.78125 C 2.59375 -0.28125 2.3125 -0.03125 1.8125 -0.03125 C 1.757812 -0.03125 1.710938 -0.046875 1.671875 -0.078125 C 1.429688 -0.0976562 1.238281 -0.207031 1.09375 -0.40625 C 0.957031 -0.601562 0.898438 -0.820312 0.921875 -1.0625 L 4.5 -23.59375 C 4.550781 -23.832031 4.675781 -24.023438 4.875 -24.171875 C 5.082031 -24.328125 5.300781 -24.382812 5.53125 -24.34375 Z M 5.53125 -24.34375 "/></g></g><g style="fill:#000000;fill-opacity:1;"><g transform="translate(65.77325, 83.915832)"><path style="stroke:none" d="M 11.75 -9.765625 C 12.175781 -8.691406 12.191406 -7.457031 11.796875 -6.0625 C 11.410156 -4.664062 10.679688 -3.351562 9.609375 -2.125 C 8.929688 -1.320312 8.078125 -0.675781 7.046875 -0.1875 C 6.015625 0.289062 5.015625 0.53125 4.046875 0.53125 C 3.929688 0.53125 3.820312 0.519531 3.71875 0.5 C 3.300781 0.476562 2.890625 0.382812 2.484375 0.21875 L 0.609375 11.640625 C 0.515625 12.140625 0.21875 12.390625 -0.28125 12.390625 C -0.332031 12.390625 -0.378906 12.375 -0.421875 12.34375 C -0.660156 12.320312 -0.847656 12.207031 -0.984375 12 C -1.128906 11.800781 -1.179688 11.585938 -1.140625 11.359375 L 2.625 -11.21875 C 2.644531 -11.445312 2.753906 -11.625 2.953125 -11.75 C 3.160156 -11.882812 3.382812 -11.941406 3.625 -11.921875 C 3.851562 -11.878906 4.039062 -11.757812 4.1875 -11.5625 C 4.332031 -11.375 4.390625 -11.148438 4.359375 -10.890625 L 3.9375 -8.34375 C 4.195312 -8.664062 4.484375 -8.988281 4.796875 -9.3125 C 5.117188 -9.632812 5.472656 -9.9375 5.859375 -10.21875 C 6.347656 -10.59375 6.984375 -10.914062 7.765625 -11.1875 C 8.546875 -11.46875 9.304688 -11.5 10.046875 -11.28125 C 10.847656 -11.070312 11.414062 -10.566406 11.75 -9.765625 Z M 8.296875 -3.296875 C 9.273438 -4.410156 9.878906 -5.503906 10.109375 -6.578125 C 10.347656 -7.660156 10.347656 -8.507812 10.109375 -9.125 C 9.992188 -9.382812 9.804688 -9.546875 9.546875 -9.609375 C 9.234375 -9.710938 8.820312 -9.6875 8.3125 -9.53125 C 7.8125 -9.375 7.335938 -9.128906 6.890625 -8.796875 C 6.128906 -8.253906 5.503906 -7.628906 5.015625 -6.921875 C 4.535156 -6.210938 4.148438 -5.492188 3.859375 -4.765625 C 3.578125 -4.046875 3.363281 -3.394531 3.21875 -2.8125 C 3.082031 -2.238281 3.003906 -1.796875 2.984375 -1.484375 C 3.097656 -1.390625 3.238281 -1.320312 3.40625 -1.28125 C 3.570312 -1.25 3.710938 -1.234375 3.828125 -1.234375 C 4.441406 -1.191406 5.179688 -1.34375 6.046875 -1.6875 C 6.910156 -2.03125 7.660156 -2.566406 8.296875 -3.296875 Z M 8.296875 -3.296875 "/></g></g><g style="fill:#000000;fill-opacity:1;"><g transform="translate(78.684399, 83.915832)"><path style="stroke:none" d="M 3.6875 -12.09375 C 3.925781 -12.050781 4.113281 -11.925781 4.25 -11.71875 C 4.394531 -11.519531 4.445312 -11.304688 4.40625 -11.078125 L 2.515625 -0.390625 C 2.421875 0.109375 2.140625 0.359375 1.671875 0.359375 C 1.617188 0.359375 1.554688 0.359375 1.484375 0.359375 C 1.253906 0.304688 1.070312 0.179688 0.9375 -0.015625 C 0.8125 -0.210938 0.757812 -0.429688 0.78125 -0.671875 L 2.65625 -11.390625 C 2.707031 -11.628906 2.832031 -11.8125 3.03125 -11.9375 C 3.226562 -12.070312 3.445312 -12.125 3.6875 -12.09375 Z M 4.40625 -18.953125 C 4.707031 -18.953125 4.96875 -18.84375 5.1875 -18.625 C 5.414062 -18.414062 5.53125 -18.15625 5.53125 -17.84375 C 5.53125 -17.539062 5.414062 -17.273438 5.1875 -17.046875 C 4.96875 -16.828125 4.707031 -16.71875 4.40625 -16.71875 C 4.09375 -16.71875 3.828125 -16.828125 3.609375 -17.046875 C 3.398438 -17.273438 3.296875 -17.539062 3.296875 -17.84375 C 3.296875 -18.15625 3.398438 -18.414062 3.609375 -18.625 C 3.828125 -18.84375 4.09375 -18.953125 4.40625 -18.953125 Z M 4.40625 -18.953125 "/></g></g><g style="fill:#000000;fill-opacity:1;"><g transform="translate(83.863051, 83.915832)"><path style="stroke:none" d="M 11.078125 -11.390625 C 11.453125 -11.054688 11.703125 -10.492188 11.828125 -9.703125 C 11.960938 -8.910156 12 -7.988281 11.9375 -6.9375 C 11.882812 -5.882812 11.785156 -4.828125 11.640625 -3.765625 C 11.492188 -2.703125 11.335938 -1.753906 11.171875 -0.921875 C 11.148438 -0.679688 11.035156 -0.488281 10.828125 -0.34375 C 10.628906 -0.207031 10.414062 -0.164062 10.1875 -0.21875 C 9.945312 -0.257812 9.753906 -0.378906 9.609375 -0.578125 C 9.472656 -0.785156 9.425781 -1.003906 9.46875 -1.234375 C 9.707031 -2.609375 9.890625 -3.925781 10.015625 -5.1875 C 10.148438 -6.457031 10.210938 -7.53125 10.203125 -8.40625 C 10.191406 -9.28125 10.101562 -9.828125 9.9375 -10.046875 C 9.695312 -10.234375 9.4375 -10.289062 9.15625 -10.21875 C 8.613281 -10.070312 8.035156 -9.660156 7.421875 -8.984375 C 6.804688 -8.316406 6.195312 -7.5 5.59375 -6.53125 C 4.988281 -5.5625 4.421875 -4.554688 3.890625 -3.515625 C 3.359375 -2.472656 2.914062 -1.523438 2.5625 -0.671875 C 2.414062 -0.316406 2.140625 -0.140625 1.734375 -0.140625 C 1.660156 -0.140625 1.578125 -0.148438 1.484375 -0.171875 C 1.273438 -0.242188 1.109375 -0.375 0.984375 -0.5625 C 0.867188 -0.757812 0.835938 -0.960938 0.890625 -1.171875 L 2.625 -11.390625 C 2.644531 -11.628906 2.753906 -11.816406 2.953125 -11.953125 C 3.160156 -12.097656 3.382812 -12.144531 3.625 -12.09375 C 3.851562 -12.070312 4.039062 -11.960938 4.1875 -11.765625 C 4.332031 -11.566406 4.378906 -11.347656 4.328125 -11.109375 L 3.578125 -6.59375 C 4.054688 -7.40625 4.578125 -8.1875 5.140625 -8.9375 C 5.710938 -9.695312 6.300781 -10.34375 6.90625 -10.875 C 7.507812 -11.40625 8.117188 -11.753906 8.734375 -11.921875 C 9.578125 -12.128906 10.359375 -11.953125 11.078125 -11.390625 Z M 11.078125 -11.390625 "/></g></g><g style="fill:#000000;fill-opacity:1;"><g transform="translate(97.270785, 83.915832)"><path style="stroke:none" d="M 11.25 -11.890625 C 11.488281 -11.835938 11.675781 -11.71875 11.8125 -11.53125 C 11.957031 -11.34375 12.003906 -11.117188 11.953125 -10.859375 C 11.953125 -10.785156 11.894531 -10.398438 11.78125 -9.703125 C 11.664062 -9.003906 11.519531 -8.140625 11.34375 -7.109375 C 11.164062 -6.085938 10.976562 -5.019531 10.78125 -3.90625 C 10.59375 -2.789062 10.410156 -1.765625 10.234375 -0.828125 C 10.054688 0.0976562 9.921875 0.800781 9.828125 1.28125 C 9.660156 2.101562 9.4375 3.007812 9.15625 4 C 8.875 5 8.53125 5.992188 8.125 6.984375 C 7.71875 7.984375 7.238281 8.894531 6.6875 9.71875 C 6.132812 10.550781 5.5 11.210938 4.78125 11.703125 C 4.070312 12.203125 3.28125 12.453125 2.40625 12.453125 C 2.382812 12.453125 2.367188 12.453125 2.359375 12.453125 C 2.347656 12.453125 2.34375 12.453125 2.34375 12.453125 C 1.351562 12.453125 0.585938 12.3125 0.046875 12.03125 C -0.484375 11.75 -0.851562 11.457031 -1.0625 11.15625 C -1.28125 10.863281 -1.398438 10.679688 -1.421875 10.609375 C -1.515625 10.367188 -1.515625 10.140625 -1.421875 9.921875 C -1.328125 9.710938 -1.160156 9.5625 -0.921875 9.46875 C -0.710938 9.375 -0.492188 9.375 -0.265625 9.46875 C -0.0351562 9.5625 0.125 9.726562 0.21875 9.96875 C 0.21875 9.96875 0.351562 10.09375 0.625 10.34375 C 0.894531 10.59375 1.46875 10.71875 2.34375 10.71875 C 2.34375 10.71875 2.347656 10.71875 2.359375 10.71875 C 2.367188 10.71875 2.375 10.71875 2.375 10.71875 C 3.53125 10.71875 4.617188 9.847656 5.640625 8.109375 C 6.660156 6.367188 7.488281 3.960938 8.125 0.890625 C 8.21875 0.410156 8.351562 -0.328125 8.53125 -1.328125 C 8.707031 -2.335938 8.90625 -3.410156 9.125 -4.546875 C 7.414062 -1.984375 5.828125 -0.476562 4.359375 -0.03125 C 4.035156 0.0625 3.71875 0.109375 3.40625 0.109375 C 2.863281 0.109375 2.351562 -0.0195312 1.875 -0.28125 C 1.707031 -0.375 1.53125 -0.53125 1.34375 -0.75 C 1.15625 -0.976562 1.015625 -1.304688 0.921875 -1.734375 C 0.773438 -2.285156 0.753906 -2.9375 0.859375 -3.6875 C 0.972656 -4.445312 1.171875 -5.21875 1.453125 -6 C 1.734375 -6.78125 2.085938 -7.488281 2.515625 -8.125 C 3.347656 -9.375 4.289062 -10.363281 5.34375 -11.09375 C 6.394531 -11.832031 7.378906 -12.203125 8.296875 -12.203125 C 8.703125 -12.203125 9.070312 -12.117188 9.40625 -11.953125 C 9.738281 -11.785156 10.035156 -11.585938 10.296875 -11.359375 C 10.484375 -11.785156 10.800781 -11.960938 11.25 -11.890625 Z M 3.828125 -1.703125 C 4.140625 -1.796875 4.566406 -2.054688 5.109375 -2.484375 C 5.648438 -2.910156 6.3125 -3.65625 7.09375 -4.71875 C 7.875 -5.78125 8.773438 -7.296875 9.796875 -9.265625 C 9.628906 -9.523438 9.398438 -9.789062 9.109375 -10.0625 C 8.828125 -10.332031 8.554688 -10.46875 8.296875 -10.46875 C 7.773438 -10.46875 7.109375 -10.1875 6.296875 -9.625 C 5.484375 -9.070312 4.707031 -8.253906 3.96875 -7.171875 C 3.476562 -6.429688 3.125 -5.671875 2.90625 -4.890625 C 2.695312 -4.109375 2.585938 -3.425781 2.578125 -2.84375 C 2.566406 -2.269531 2.628906 -1.925781 2.765625 -1.8125 C 3.097656 -1.625 3.453125 -1.585938 3.828125 -1.703125 Z M 3.828125 -1.703125 "/></g></g><g style="fill:#000000;fill-opacity:1;"><g transform="translate(110.040053, 83.915832)"><path style="stroke:none" d="M 16.75 -24.796875 C 17.007812 -24.773438 17.207031 -24.664062 17.34375 -24.46875 C 17.488281 -24.269531 17.539062 -24.039062 17.5 -23.78125 L 13.84375 -0.8125 C 13.769531 -0.320312 13.472656 -0.078125 12.953125 -0.078125 C 12.898438 -0.078125 12.851562 -0.078125 12.8125 -0.078125 C 12.570312 -0.117188 12.375 -0.234375 12.21875 -0.421875 C 12.070312 -0.609375 12.019531 -0.832031 12.0625 -1.09375 L 13.625 -10.890625 L 3.71875 -10.890625 L 2.125 -0.8125 C 2.050781 -0.320312 1.753906 -0.078125 1.234375 -0.078125 C 1.191406 -0.078125 1.144531 -0.078125 1.09375 -0.078125 C 0.863281 -0.117188 0.671875 -0.234375 0.515625 -0.421875 C 0.359375 -0.609375 0.304688 -0.832031 0.359375 -1.09375 L 4.015625 -24.0625 C 4.054688 -24.320312 4.175781 -24.519531 4.375 -24.65625 C 4.582031 -24.800781 4.800781 -24.847656 5.03125 -24.796875 C 5.269531 -24.773438 5.457031 -24.664062 5.59375 -24.46875 C 5.738281 -24.269531 5.800781 -24.039062 5.78125 -23.78125 L 4.015625 -12.703125 L 13.90625 -12.703125 L 15.71875 -24.0625 C 15.769531 -24.320312 15.894531 -24.519531 16.09375 -24.65625 C 16.289062 -24.800781 16.507812 -24.847656 16.75 -24.796875 Z M 16.75 -24.796875 "/></g></g><g style="fill:#000000;fill-opacity:1;"><g transform="translate(127.846091, 83.915832)"><path style="stroke:none" d="M 11.5 -11.890625 C 11.707031 -11.816406 11.867188 -11.691406 11.984375 -11.515625 C 12.109375 -11.335938 12.160156 -11.140625 12.140625 -10.921875 L 10.578125 -0.609375 C 10.523438 -0.367188 10.40625 -0.175781 10.21875 -0.03125 C 10.03125 0.101562 9.816406 0.148438 9.578125 0.109375 C 9.316406 0.0859375 9.113281 -0.0195312 8.96875 -0.21875 C 8.832031 -0.425781 8.785156 -0.648438 8.828125 -0.890625 L 9.609375 -5.96875 C 9.023438 -4.96875 8.367188 -4 7.640625 -3.0625 C 6.921875 -2.132812 6.171875 -1.367188 5.390625 -0.765625 C 4.609375 -0.160156 3.828125 0.140625 3.046875 0.140625 C 2.910156 0.140625 2.78125 0.128906 2.65625 0.109375 C 1.8125 -0.015625 1.242188 -0.5625 0.953125 -1.53125 C 0.742188 -2.28125 0.734375 -3.191406 0.921875 -4.265625 C 1.109375 -5.347656 1.503906 -6.453125 2.109375 -7.578125 C 2.710938 -8.703125 3.5 -9.703125 4.46875 -10.578125 C 5.695312 -11.660156 6.925781 -12.097656 8.15625 -11.890625 C 8.582031 -11.816406 8.96875 -11.6875 9.3125 -11.5 C 9.65625 -11.3125 9.957031 -11.097656 10.21875 -10.859375 C 10.289062 -11.023438 10.375 -11.203125 10.46875 -11.390625 C 10.675781 -11.859375 11.019531 -12.023438 11.5 -11.890625 Z M 2.90625 -1.625 C 3.476562 -1.5625 4.351562 -2.125 5.53125 -3.3125 C 6.71875 -4.507812 8.007812 -6.46875 9.40625 -9.1875 C 9.238281 -9.375 9.023438 -9.566406 8.765625 -9.765625 C 8.503906 -9.972656 8.207031 -10.101562 7.875 -10.15625 C 7.78125 -10.175781 7.6875 -10.1875 7.59375 -10.1875 C 7 -10.1875 6.347656 -9.878906 5.640625 -9.265625 C 4.816406 -8.503906 4.15625 -7.65625 3.65625 -6.71875 C 3.15625 -5.789062 2.820312 -4.898438 2.65625 -4.046875 C 2.488281 -3.191406 2.476562 -2.515625 2.625 -2.015625 C 2.644531 -1.972656 2.675781 -1.894531 2.71875 -1.78125 C 2.769531 -1.675781 2.832031 -1.625 2.90625 -1.625 Z M 2.90625 -1.625 "/></g></g><g style="fill:#000000;fill-opacity:1;"><g transform="translate(140.863651, 83.915832)"><path style="stroke:none" d="M 11.078125 -11.390625 C 11.453125 -11.054688 11.703125 -10.492188 11.828125 -9.703125 C 11.960938 -8.910156 12 -7.988281 11.9375 -6.9375 C 11.882812 -5.882812 11.785156 -4.828125 11.640625 -3.765625 C 11.492188 -2.703125 11.335938 -1.753906 11.171875 -0.921875 C 11.148438 -0.679688 11.035156 -0.488281 10.828125 -0.34375 C 10.628906 -0.207031 10.414062 -0.164062 10.1875 -0.21875 C 9.945312 -0.257812 9.753906 -0.378906 9.609375 -0.578125 C 9.472656 -0.785156 9.425781 -1.003906 9.46875 -1.234375 C 9.707031 -2.609375 9.890625 -3.925781 10.015625 -5.1875 C 10.148438 -6.457031 10.210938 -7.53125 10.203125 -8.40625 C 10.191406 -9.28125 10.101562 -9.828125 9.9375 -10.046875 C 9.695312 -10.234375 9.4375 -10.289062 9.15625 -10.21875 C 8.613281 -10.070312 8.035156 -9.660156 7.421875 -8.984375 C 6.804688 -8.316406 6.195312 -7.5 5.59375 -6.53125 C 4.988281 -5.5625 4.421875 -4.554688 3.890625 -3.515625 C 3.359375 -2.472656 2.914062 -1.523438 2.5625 -0.671875 C 2.414062 -0.316406 2.140625 -0.140625 1.734375 -0.140625 C 1.660156 -0.140625 1.578125 -0.148438 1.484375 -0.171875 C 1.273438 -0.242188 1.109375 -0.375 0.984375 -0.5625 C 0.867188 -0.757812 0.835938 -0.960938 0.890625 -1.171875 L 2.625 -11.390625 C 2.644531 -11.628906 2.753906 -11.816406 2.953125 -11.953125 C 3.160156 -12.097656 3.382812 -12.144531 3.625 -12.09375 C 3.851562 -12.070312 4.039062 -11.960938 4.1875 -11.765625 C 4.332031 -11.566406 4.378906 -11.347656 4.328125 -11.109375 L 3.578125 -6.59375 C 4.054688 -7.40625 4.578125 -8.1875 5.140625 -8.9375 C 5.710938 -9.695312 6.300781 -10.34375 6.90625 -10.875 C 7.507812 -11.40625 8.117188 -11.753906 8.734375 -11.921875 C 9.578125 -12.128906 10.359375 -11.953125 11.078125 -11.390625 Z M 11.078125 -11.390625 "/></g></g><g style="fill:#000000;fill-opacity:1;"><g transform="translate(154.271385, 83.915832)"><path style="stroke:none" d="M 12.734375 -24.453125 C 12.972656 -24.398438 13.160156 -24.28125 13.296875 -24.09375 C 13.441406 -23.90625 13.492188 -23.691406 13.453125 -23.453125 L 10 -0.921875 C 9.90625 -0.421875 9.613281 -0.171875 9.125 -0.171875 C 9.070312 -0.171875 9.035156 -0.171875 9.015625 -0.171875 C 8.753906 -0.203125 8.550781 -0.316406 8.40625 -0.515625 C 8.269531 -0.710938 8.222656 -0.929688 8.265625 -1.171875 L 8.828125 -4.796875 C 7.984375 -3.367188 7.085938 -2.238281 6.140625 -1.40625 C 5.191406 -0.582031 4.316406 -0.171875 3.515625 -0.171875 C 3.328125 -0.171875 3.148438 -0.1875 2.984375 -0.21875 C 2.628906 -0.3125 2.25 -0.53125 1.84375 -0.875 C 1.4375 -1.21875 1.148438 -1.773438 0.984375 -2.546875 C 0.828125 -3.328125 0.925781 -4.414062 1.28125 -5.8125 C 1.46875 -6.570312 1.773438 -7.34375 2.203125 -8.125 C 2.628906 -8.90625 3.132812 -9.613281 3.71875 -10.25 C 4.3125 -10.894531 4.945312 -11.398438 5.625 -11.765625 C 6.300781 -12.128906 6.96875 -12.300781 7.625 -12.28125 C 8.101562 -12.25 8.523438 -12.140625 8.890625 -11.953125 C 9.253906 -11.765625 9.566406 -11.566406 9.828125 -11.359375 L 11.75 -23.703125 C 11.769531 -23.941406 11.878906 -24.128906 12.078125 -24.265625 C 12.285156 -24.410156 12.503906 -24.472656 12.734375 -24.453125 Z M 3.40625 -1.921875 C 3.6875 -1.847656 4.148438 -2.0625 4.796875 -2.5625 C 5.453125 -3.070312 6.164062 -3.894531 6.9375 -5.03125 C 7.707031 -6.164062 8.4375 -7.625 9.125 -9.40625 C 9.050781 -9.476562 8.988281 -9.5625 8.9375 -9.65625 C 8.914062 -9.695312 8.796875 -9.84375 8.578125 -10.09375 C 8.367188 -10.34375 8.015625 -10.488281 7.515625 -10.53125 C 7.492188 -10.53125 7.472656 -10.53125 7.453125 -10.53125 C 6.929688 -10.53125 6.363281 -10.269531 5.75 -9.75 C 5.132812 -9.238281 4.566406 -8.59375 4.046875 -7.8125 C 3.523438 -7.03125 3.171875 -6.222656 2.984375 -5.390625 C 2.890625 -5.085938 2.804688 -4.675781 2.734375 -4.15625 C 2.660156 -3.632812 2.664062 -3.15625 2.75 -2.71875 C 2.832031 -2.28125 3.050781 -2.015625 3.40625 -1.921875 Z M 3.40625 -1.921875 "/></g></g><g style="fill:#000000;fill-opacity:1;"><g transform="translate(166.68596, 83.915832)"><path style="stroke:none" d="M 1.28125 -1.8125 C 1.5625 -1.8125 1.804688 -1.707031 2.015625 -1.5 C 2.234375 -1.300781 2.34375 -1.050781 2.34375 -0.75 C 2.34375 -0.457031 2.234375 -0.207031 2.015625 0 C 1.804688 0.207031 1.5625 0.3125 1.28125 0.3125 C 0.96875 0.3125 0.710938 0.207031 0.515625 0 C 0.316406 -0.207031 0.21875 -0.457031 0.21875 -0.75 C 0.21875 -1.050781 0.316406 -1.300781 0.515625 -1.5 C 0.710938 -1.707031 0.96875 -1.8125 1.28125 -1.8125 Z M 1.28125 -1.8125 "/></g></g></g></svg>